<?xml version="1.0" encoding="UTF-8" standalone="no"?>
<svg
   id="svg2"
   y="0in"
   version="1.2"
   height="0.91551197in"
   width="0.91552502in"
   x="0in"
   viewBox="0 0 915.52498 915.51191"
   xml:space="preserve"
   xmlns="http://www.w3.org/2000/svg"
   xmlns:svg="http://www.w3.org/2000/svg"
   xmlns:rdf="http://www.w3.org/1999/02/22-rdf-syntax-ns#"
   xmlns:cc="http://creativecommons.org/ns#"
   xmlns:dc="http://purl.org/dc/elements/1.1/">
  <metadata
   id="metadata24">
    <rdf:RDF>
      <cc:Work
   rdf:about="">
        <dc:format>image/svg+xml</dc:format>
        <dc:type
   rdf:resource="http://purl.org/dc/dcmitype/StillImage" />
      </cc:Work>
    </rdf:RDF>
  </metadata>
  <defs
   id="defs22" />
  <desc
   id="desc4">
    <referenceFile>AS5600-module_1_pcb.svg</referenceFile>
  </desc>
  <g
   id="silkscreen"
   transform="rotate(-90,457.76249,457.75595)">
    <path
   id="upper"
   d="M 5.0132243,91.614292 C 4.4576564,44.873511 47.246913,4.9205879 94.082094,5.0001199 H 811.20069 c 54.02442,2.4825159 96.21644,32.6755361 99.32429,86.6141721 V 800.27566 c -0.207,56.83559 -36.58481,109.8056 -101.60811,110.23624 H 98.649728 c 0,0 -91.2764522,-58.01618 -93.6365037,-110.23624 -0.02245,-0.49676 0,-708.661368 0,-708.661368 z"
   fill="none"
   stroke="#000000"
   stroke-width="10" />
    <circle
   id="3pin_ra_header"
   cx="140.90181"
   cy="124.50298"
   r="62"
   fill-opacity="1"
   fill="#000000" />
    <circle
   id="circle1"
   cx="762.95801"
   cy="124.50298"
   r="62"
   fill-opacity="1"
   fill="#000000" />
    <circle
   id="circle2"
   cx="762.95801"
   cy="774.12604"
   r="62"
   fill-opacity="1"
   fill="#000000" />
    <circle
   id="circle3"
   cx="140.91086"
   cy="774.12604"
   r="62"
   fill-opacity="1"
   fill="#000000" />
  </g>
  <g
   id="copper1"
   transform="rotate(-90,457.76249,457.75595)">
    
  <rect
   id="rect84"
   width="57.999996"
   height="57.999996"
   x="170.00323"
   y="216.99345"
   fill="none"
   stroke="#f7bd13"
   stroke-width="20"
   transform="translate(-2.6209494,2.1841225)" /><circle
   id="connector4pin"
   cx="198.51846"
   cy="641.99341"
   r="29"
   fill="none"
   stroke="#f7bd13"
   stroke-width="20"
   transform="translate(-2.6209494,2.1841225)" /><circle
   id="connector3pin"
   cx="198.51846"
   cy="541.99341"
   r="29"
   fill="none"
   stroke="#f7bd13"
   stroke-width="20"
   transform="translate(-2.6209703,2.18411)" /><circle
   id="connector2pin"
   cx="198.13942"
   cy="441.99344"
   r="29"
   fill="none"
   stroke="#f7bd13"
   stroke-width="20"
   transform="translate(-2.6209494,2.1841225)" /><circle
   id="connector1pin"
   cx="198.51846"
   cy="341.99344"
   r="29"
   fill="none"
   stroke="#f7bd13"
   stroke-width="20"
   transform="translate(-2.6209494,2.1841225)" /><circle
   id="connector0pin"
   cx="198.13942"
   cy="245.92488"
   r="29"
   fill="none"
   stroke="#f7bd13"
   stroke-width="20"
   transform="translate(-2.6209494,2.1841225)" /></g>
</svg>
