<?xml version="1.0" encoding="UTF-8"?>
<svg width=".916in" height=".916in" version="1.2" viewBox="0 0 916 916" xml:space="preserve" xmlns="http://www.w3.org/2000/svg" xmlns:cc="http://creativecommons.org/ns#" xmlns:dc="http://purl.org/dc/elements/1.1/" xmlns:rdf="http://www.w3.org/1999/02/22-rdf-syntax-ns#">
  <metadata>
    <rdf:RDF>
      <cc:Work rdf:about="">
        <dc:format>image/svg+xml</dc:format>
        <dc:type rdf:resource="http://purl.org/dc/dcmitype/StillImage"/>
      </cc:Work>
    </rdf:RDF>
  </metadata>
  
  <desc>
    <referenceFile>AS5600-module_1_breadboard.svg</referenceFile>
  </desc>
  <g id="breadboard" transform="translate(-.6989 -16.265)">
    
    
    
    
    
    
    
    
    
    
    
    
    
    
    
    
    
    
    
    
    
    
    
    
    
    
    
    
    
    
    
    
    
    
    
    
    
    
    
    
    
    
    
    
    
    
    
    
    
    
    
    
    
    
    
    
    
    
    
    
    
    
    
    
    
    
    
    
    
    
    
    
    
    
    
    
    
    
    
    
    
    
    
    
    
    
    
    
    
    
    
    
    
    
    
    
    
    
    
    
    
    
    
    
    
    
    
    
    
    
    
    
    
    
    
    
    
    
    
    
    
    
    <path d="m87.822 911.6-31.149-0.96881-10.68-7.403c-12.894-8.938-17.245-13.464-21.916-22.797-3.3841-6.7619-3.6519-12.867-5.5323-126.13-1.0868-65.463-2.7613-165.79-3.7211-222.95-6.8338-406.96-6.8153-402.19-1.6345-419.94 5.6681-19.421 10.194-30.937 14.381-36.589 6.9863-9.431 20.141-22.269 25.003-24.4 2.6396-1.1573 7.846-4.8179 11.57-8.1345 3.7237-3.3166 13.207-9.3489 21.074-13.405l14.303-7.3748h354.72 354.72l7.7318 4.5223c4.2525 2.4872 10.198 5.2281 13.211 6.0907 10.998 3.1481 34.348 18.617 42.654 28.258 4.5296 5.2577 11.591 12.852 15.691 16.876 8.5617 8.4025 10.928 13.614 13.155 28.972 0.87683 6.0476 2.7211 13.642 4.0983 16.876 6.3056 14.808 6.4406 22.587 6.4406 371.05v343.64l-8.6281 17.222c-11.282 22.519-22.14 34.408-40.027 43.828-7.6703 4.0393-15.217 7.3441-16.769 7.3441s-4.3723 1.399-6.2653 3.1088c-3.2534 2.9386-23.096 3.1132-362.36 3.1894-197.41 0.0443-372.94-0.35539-390.07-0.88823zm54.746-72.696c16.425-8.3629 25.25-22.549 25.313-40.692 0.047-13.431-2.7158-20.61-11.803-30.669-9.1676-10.147-18.242-14.052-32.657-14.052-26.109 0-45.371 19.286-45.167 45.222 0.25856 32.808 35.527 54.848 64.314 40.191zm669.02-2.9818c28.926-17.768 28.949-58.413 0.0442-76.168-16.856-10.354-40.661-7.428-54.156 6.6559-17.385 18.144-18.165 42.273-1.9604 60.693 14.012 15.928 38.284 19.745 56.072 8.819zm-386.46 1.7433c3.0767-2.3176 3.5599-4.7598 3.5599-17.992 0-10.663-0.67541-15.539-2.225-16.063-1.672-0.56539-2.225 3.2579-2.225 15.384 0 13.894-0.41338 16.136-2.9748 16.136-1.6361 0-4.4445-1.3275-6.2408-2.9499s-3.7605-2.4563-4.365-1.8531c-1.9462 1.9424 0.92345 6.6173 5.0862 8.286 5.3399 2.1405 5.2752 2.147 9.3842-0.94818zm29.342-14.526c-0.0346-19.752-1.3414-22.141-8.72-15.945-5.384 4.5214-5.0532 7.702 0.57681 5.5458 2.4346-0.93241 2.8306 0.80647 2.8306 12.43 0 10.828 0.53065 13.514 2.6699 13.514 2.1719 0 2.6648-2.8994 2.6427-15.544zm249.67-49.577c1.5897-0.97425 1.4813-58.202-0.16866-88.99-0.67702-12.634-0.4871-21.989 0.4527-22.3 0.9296-0.30789 1.444-19.597 1.2079-45.298l-0.4111-44.761h20.379c16.152 0 20.849-0.56575 22.647-2.7276 1.7479-2.102 1.9859-9.3171 1.0376-31.454-0.6768-15.8-1.6676-29.162-2.2017-29.693-0.53411-0.53136-10.488-0.92099-22.121-0.86583l-21.15 0.10029-0.50345-17.64-0.50346-17.64-48.81 0.32057c-26.846 0.17632-50.172 1.0481-51.837 1.9374-2.8081 1.4999-2.9631 8.4278-2.144 95.828l0.88294 94.212-47.834-0.39563c-31.87-0.2636-38.478-0.57509-19.799-0.93335 15.419-0.29574 28.034-1.2448 28.034-2.109 0-0.86421-11.689-1.3724-25.975-1.1294-17.542 0.29841-26.166-0.18611-26.564-1.4924-0.32347-1.0638-1.0923-41.203-1.7085-89.198l-1.1204-87.263 15.278-0.80034c8.4031-0.44019 17.857-0.40109 21.009 0.0869 5.3405 0.82683 5.4366 0.95987 1.4127 1.954-5.922 1.463-6.9205 5.1936-1.0925 4.0817 5.4204-1.0342 5.7699 1.0962 1.0155 6.1894-6.9665 7.463-10.722 15.534-10.551 22.674 0.26626 11.079 2.1753 15.736 7.0007 17.079 2.4117 0.67104 3.1835 1.3794 1.715 1.5742-1.4685 0.19478-0.66749 0.92831 1.78 1.6301 2.4474 0.70175 6.0519 0.86707 8.0098 0.36736 3.2319-0.82483 3.1498-1.0243-0.88998-2.1641-2.6336-0.74309 2.245-1.3279 11.952-1.4327 14.9-0.16085 16.591-0.52918 18.463-4.0214 2.886-5.382 0.88296-21.64-3.6006-29.224-2.0249-3.4252-2.9794-5.7944-2.1211-5.265 0.8583 0.52941 1.5657-1.2212 1.5719-3.8903 0.0131-5.5711-2.0802-7.458-6.8833-6.2044-4.2185 1.101-4.3454 4.9906-0.24795 7.5992 2.5264 1.6083 1.9798 1.7928-2.8924 0.97651-3.304-0.55357-8.5104-1.0187-11.57-1.0337-3.7307-0.0182-4.7792-0.52267-3.184-1.5318 1.3081-0.82754 2.1091-3.4134 1.78-5.7463-0.59417-4.2117-0.47538-4.2431 16.805-4.4378 9.5718-0.10783 17.689 0.29188 18.038 0.88823 0.70092 1.198 2.5431 81.416 3.2069 139.65l0.4253 37.306-11.527 1.0257c-11.527 1.0257-11.527 1.0257 3.3742 1.3324l14.901 0.30662-1.304-92.821c-0.71718-51.051-1.4152-92.95-1.5512-93.108-0.13595-0.15784-6.655-0.66002-14.487-1.116-7.8318-0.45595-15.652-1.4155-17.377-2.1324s-4.1286-0.52112-5.3399 0.43495c-2.1017 1.6589-25.456 2.6008-128.13 5.1676-35.389 0.88466-45.834 0.65423-45.834-1.0111 0-1.6666-11.212-1.9025-49.321-1.0377-27.127 0.61555-50.155 1.6626-51.174 2.3269s-24.224 1.6074-51.566 2.0959l-49.714 0.88824-0.1253 15.988-0.1253 15.988-11.457 0.42062c-6.3015 0.23135-12.309 1.2716-13.35 2.3116-1.1788 1.1778-1.8924 12.601-1.8923 30.288 1.9e-4 23.281 0.48128 28.712 2.6699 30.143 1.4683 0.96028 7.6758 1.5972 13.794 1.4154s11.45 3e-3 11.849 0.40968c0.39826 0.40717 0.99904 21.652 1.3351 47.211l0.61096 46.471 5.6928 0.9229c3.1311 0.5076 45.583 0.59012 94.338 0.18338 48.755-0.40674 160.81-1.133 249.01-1.6139l160.36-0.87442 1.1696 32.225c1.6616 45.781 1.4714 63.236-0.70352 64.578-1.0302 0.63545-113.84 1.5895-250.7 2.1202l-248.83 0.96481-1.1508-9.5653c-0.63293-5.2609-1.1578-27.011-1.1663-48.334-0.0144-35.961-0.24103-38.725-3.1304-38.171-2.8598 0.54899-3.1538 4.4929-3.5891 48.157-0.32576 32.673 0.15235 48.728 1.5275 51.292 2.0017 3.7328 2.0017 3.7328 257.68 2.4274 140.62-0.71799 256.28-1.6736 257.01-2.1236zm-509.53-109.42c-0.01-1.2213-0.89532-38.594-1.9682-83.05-1.9806-82.072-2.0463-91.953-0.62647-94.246 0.43829-0.70779 22.231-1.1762 48.428-1.0409l47.632 0.24597 1.1555 36.418c3.1106 98.035 3.424 136.63 1.1393 140.28-2.1805 3.4847-3.9276 3.6135-49.002 3.6135-36.197 0-46.745-0.50094-46.758-2.2206zm69.457-26.647c7.8057-12.772 5.2646-25.804-6.0999-31.283-4.4592-2.15-5.5246-2.0325-9.7 1.0697-2.5798 1.9167-5.389 5.8015-6.2425 8.6329-5.3278 17.674-6.7254 20.248-10.992 20.248-7.9788 0-10.99-14.706-4.3653-21.318 3.6678-3.6606 4.8072-8.8824 1.9382-8.8824-0.89195 0-3.6954 2.4596-6.2299 5.4657-9.4461 11.204-4.0543 30.064 8.5949 30.064 7.1558 0 10.693-3.7188 13.517-14.212 3.4292-12.741 5.4927-15.988 10.161-15.988 3.1632 0 4.901 1.579 6.843 6.2176 2.2854 5.459 2.2841 6.9793-0.0105 12.46-1.4374 3.4334-3.8511 6.7166-5.3638 7.2959-3.9956 1.5303-3.3729 6.0026 0.83578 6.0026 2.1354 0 5.0135-2.3356 7.1147-5.7735zm2.7464-52.462c1.0903-9.6181 1.4602-10.267 5.8244-10.215 3.1222 0.0373 4.8756-1.019 5.313-3.2006 0.55417-2.7641 0.10847-2.9655-2.949-1.3324-5.6545 3.0203-8.0578 2.3013-11.297-3.3797-9.5207-16.7-34.751-16.207-44.159 0.86239-2.6768 4.857-3.9508 5.416-14.373 6.3069l-11.436 0.97744 23.139 1.598 0.50727 7.1059c0.85542 11.983-0.0937 11.547 25.158 11.547h23.107zm-43.904-0.83261c-0.52035-15.248 3.2577-21.729 13.82-23.707 12.895-2.4143 21.833 3.5097 23.687 15.698 1.9743 12.983 0.83922 13.782-19.598 13.782h-17.711zm32.236-10.215c0-0.98843-4.1454-1.6727-9.3448-1.5426-8.6912 0.2175-8.9091 0.32539-3.1149 1.5426 9.3515 1.9646 12.46 1.9646 12.46 0zm-59.506-40.609c-2.5371-2.5321-2.7928-2.4368-2.7928 1.0414 0 2.1058 0.83931 4.3465 1.8651 4.9792 1.0258 0.63275 1.7346 2.4786 1.575 4.1019-0.15957 1.6233-0.0633 3.7509 0.21405 4.7279 0.2773 0.97705 0.82532-1.3374 1.2178-5.1434 0.48341-4.6874-0.18736-7.819-2.0792-9.7071zm56.883 11.432c12.492 5.2094 18.476 1.8458 6.392-3.5929-6.4908-2.9212-6.9653-3.6654-7.8164-12.261-0.49838-5.033-0.0941-10.15 0.89836-11.372 2.7121-3.3374 19.108-2.8253 23.033 0.71945 3.0578 2.7618 3.2551 2.708 3.2551-0.88824 0-3.3613-0.99174-3.8283-8.1298-3.8283-7.3198 0-8.0172-0.354-6.9999-3.5529 1.4033-4.4126 0.49083-4.4125-11.144 9e-4 -7.7428 2.9371-13.675 3.552-34.264 3.552-15.414 0-24.9 0.67682-24.9 1.7765 0 1.0741 7.9168 1.8092 20.025 1.8592l20.025 0.0827-8.4548 4.3925c-4.6501 2.4159-8.4548 5.5601-8.4548 6.9871 0 2.7013 12.124 9.7726 16.755 9.7726 4.7559 0 11.719 4.0546 11.931 6.9469 0.17663 2.4155 0.32039 2.3937 0.99458-0.15088 0.71083-2.6829 1.3832-2.7264 6.8562-0.44412zm-21.302-12.443c-3.8584-1.191-7.2662-2.9167-7.5729-3.8351-0.58346-1.747 14.743-7.8388 19.722-7.8388 2.1687 0 2.876 1.7476 2.876 7.1059 0 8.0361-1.9089 8.6165-15.025 4.568zm36.385 2.5379c0-0.97706-0.80099-1.7765-1.78-1.7765-0.97898 0-1.78 0.79941-1.78 1.7765s0.80098 1.7765 1.78 1.7765c0.97897 0 1.78-0.79941 1.78-1.7765zm32.975 125.76c-0.43544-1.2637-1.6435-41.809-2.6846-90.1-1.2624-58.556-2.5448-88.586-3.8499-90.156-1.4268-1.7158-1.4157-2.3534 0.0409-2.3534 1.0988 0 1.9979 0.79941 1.9979 1.7765 0 1.1339 15.13 1.7765 41.829 1.7765s41.829 0.64256 41.829 1.7765c0 0.97706-2.2027 1.8008-4.8949 1.8305-4.1989 0.0463-4.45 0.31262-1.7659 1.8726 1.721 1.0002 3.9237 1.3284 4.8949 0.72937 1.1222-0.69217 1.7983 5.5866 1.8549 17.224 0.049 10.073 0.76737 49.091 1.5964 86.708 0.82905 37.617 1.2663 68.651 0.97158 68.964-0.29469 0.31343-18.646 0.94767-40.782 1.4094-31.912 0.6657-40.41 0.36375-41.038-1.4581zm41.336-25.457c2.1477-1.5014 4.7495-6.098 5.7817-10.215 2.7291-10.884 6.7357-19.04 9.3213-18.976 1.2396 0.0311 3.8557 1.2646 5.8137 2.7412 5.3595 4.0418 5.067 19.174-0.44499 23.028-4.9444 3.4564-5.1573 6.1511-0.48603 6.1511 4.5199 0 8.4498-6.0484 9.9254-15.276 2.1644-13.535-7.916-25.114-17.908-20.57-4.7654 2.167-8.5324 9.0434-11.55 21.083-2.3391 9.3327-7.9291 11.913-12.8 5.9095-4.6434-5.7231-4.1188-13.489 1.2245-18.126 4.9095-4.2604 5.8634-8.5502 1.9012-8.5502-4.8782 0-9.911 9.7712-9.911 19.242 0 7.5241 0.7354 9.5006 4.6899 12.605 5.5909 4.3892 9.1867 4.6262 14.443 0.95213zm20.537-47.031c2.5025-1.9646 5.8858-7.0628 7.5184-11.329 2.6613-6.9548 2.6933-8.2852 0.30903-12.86-4.1261-7.9175-11.536-14.168-13.946-11.763-1.4815 1.4786-0.31992 3.5796 4.4735 8.0915 7.1488 6.7289 7.7713 9.5663 3.7862 17.257-3.5507 6.8529-7.7017 8.8468-18.418 8.8468-12.183 0-19.833-6.178-19.833-16.017 0-5.2367 1.0795-7.6665 4.6518-10.471 3.2391-2.5429 4.2828-4.6052 3.4366-6.7907-1.0481-2.7072-2.0548-2.2264-7.3218 3.4969-9.5825 10.413-7.9603 23.914 3.8032 31.654 7.4087 4.8743 25.267 4.8095 31.539-0.11442zm3.67-48.464c2.8225-0.31728 3.3114-2.0782 3.4402-12.392 0.16105-12.897-2.914-19.802-5.0448-11.329-0.64981 2.584-0.65966 6.7731-0.0219 9.3092 1.8447 7.3356-1.5387 9.6007-14.341 9.6007-6.2435 0-11.352-0.74973-11.352-1.6661 0-0.91633-1.4017-1.6917-3.1149-1.7231-1.7132-0.0314-5.7181-0.57151-8.8998-1.2003-3.7488-0.74085-5.7849-0.447-5.7849 0.83489 0 1.088 1.3546 1.9781 3.0102 1.9781 2.6924 0 2.6637 0.25281-0.27194 2.3952-1.8051 1.3174-2.8264 3.131-2.2695 4.0304 0.83752 1.3525 33.021 1.4692 44.65 0.1619zm-50.459-50.999c0-0.97705-1.2015-1.7765-2.6699-1.7765s-2.6699 0.79942-2.6699 1.7765c0 0.97706 1.2015 1.7765 2.6699 1.7765s2.6699-0.79941 2.6699-1.7765zm21.36-3.5529c0-0.97706-3.0037-1.7203-6.6748-1.6516-5.3545 0.10016-5.9706 0.42687-3.1149 1.6516 4.9463 2.1213 9.7898 2.1213 9.7898 0zm54.512 159.46c-0.55145-9.052-1.4662-49.399-2.0329-89.66l-1.0302-73.202 52.149-0.52139c28.682-0.28677 52.754-0.077 53.494 0.46605 1.7812 1.3074 4.4823 68.622 5.1996 129.58l0.57484 48.853-107.35 0.93984zm45.948 0.59223c0.54581-0.88141-1.6096-3.1348-4.7898-5.0075-5.5878-3.2904-6.5128-6.24-5.1147-16.31 0.12238-0.88147 2.6855-2.4596 5.6959-3.507 3.2243-1.1218 4.9788-2.7029 4.2699-3.8478-0.66195-1.069-2.324-1.5144-3.6934-0.98995-1.3694 0.52447-2.4899 0.64436-2.4899 0.2664 0-0.37795-0.48619-1.9517-1.0804-3.4972-0.78254-2.0353-6e-3 -2.81 2.8183-2.81 2.3488 0 3.5882-0.88279 3.1178-2.2206-0.48034-1.366-3.2692-2.0211-7.2463-1.7023-8.0134 0.64237-13.629-2.1818-13.629-6.8542 0-4.0055 1.0318-4.4885 13.011-6.0916 11.968-1.6014 10.03-5.3029-2.4508-4.6814-12.615 0.62823-14.918 2.941-13.347 13.4 1.2164 8.0957 1.271 8.1498 8.2353 8.1498 3.8559 0 7.0108 0.73403 7.0108 1.6312 0 0.89715 0.48619 2.8957 1.0804 4.4412 0.74031 1.9254 0.0399 2.8426-2.225 2.9134-6.3845 0.19971-22.864 9.5213-23.397 13.235-0.43131 3.003 1.9626 4.4609 15.13 9.2142 17.843 6.4414 17.76 6.4229 19.094 4.2688zm-24.591-11.376c-4.1814-1.8002-4.6685-2.5767-2.66-4.2403 1.3523-1.1201 4.6569-2.5872 7.3436-3.2602 4.1697-1.0445 4.8849-0.67522 4.8849 2.5219 0 2.06 0.0423 4.3451 0.094 5.0779 0.15936 2.2583-4.293 2.2126-9.6626-0.0992zm59.913 1.1564c13.332-1.2566 15.389-4.4685 3.8051-5.9425-6.2189-0.7913-7.0371-1.4698-7.4976-6.2176-0.28431-2.9312-1.3827-7.5278-2.4409-10.215-2.5396-6.4485-9.7668-6.5498-16.79-0.23543-2.8445 2.5574-4.2389 4.1513-3.0988 3.5419 1.1401-0.6094 2.4953-0.10375 3.0116 1.1237 0.67598 1.6071 1.4905 1.3616 2.9104-0.87717 1.0844-1.7098 3.8487-3.1088 6.1427-3.1088 4.4871 0 6.6701 3.3268 7.3007 11.126 0.48597 6.0104-1.2652 7.2464-8.1338 5.7407-3.6094-0.7912-5.6428-2.5319-6.3794-5.461-1.7924-7.1273-4.7935-5.0554-3.4018 2.3486 0.68731 3.6565 1.6247 7.2539 2.0831 7.9941 1.0124 1.6349 6.5981 1.6802 22.488 0.18248zm6.1688-39.933c6.5527-3.5 4.6257-6.4411-6.2294-9.5076-5.6291-1.5902-11.648-3.3033-13.376-3.8069-4.4153-1.2871-2.3079-3.7155 4.4962-5.1808 9.39-2.0223 19.115-6.3743 19.108-8.5512-4e-3 -1.1152-5.8106-3.5322-12.905-5.371-19.668-5.0979-23.279-5.5316-22.327-2.681 0.468 1.4012 6.2461 3.5367 13.576 5.0175 7.0189 1.4179 12.762 3.1876 12.762 3.9325s-3.0037 1.8163-6.6749 2.3808c-8.9492 1.3761-19.135 6.5347-19.135 9.6912 0 1.5778 3.9504 3.7259 10.325 5.6146 17.293 5.1235 17.388 5.3287 3.935 8.4862-8.3392 1.9573-12.619 3.8484-12.983 5.7373-0.48754 2.5266 0.79761 2.485 12.439-0.40219 7.1404-1.771 14.785-4.1826 16.988-5.3593zm-44.28-15.082c4.1006-2.8665 4.2866-5.1421 1.3263-16.224-0.45518-1.7039-0.88888-3.6976-0.96378-4.4304-0.0749-0.7328-3.777-1.3324-8.2269-1.3324-10.477 0-17.842 6.3878-15.966 13.847 0.66196 2.6323 2.0309 5.7809 3.0421 6.9969 2.7302 3.2832 5.3086 0.82461 3.22-3.0704-2.6536-4.9486-2.179-10.668 0.88517-10.668 1.6207 0 2.6699 1.6512 2.6699 4.2016 0 4.0486 6.056 13.563 8.6329 13.563 0.69009 0 3.1113-1.2978 5.3804-2.8841zm-9.2191-9.1071c-1.395-7.0947 1.8199-9.3644 6.0118-4.2444 4.6569 5.6881 4.352 9.1297-0.80883 9.1297-3.2086 0-4.4765-1.1905-5.203-4.8853zm9.3955-19.917c2.2824-1.4406 2.2622-1.7908-0.15733-2.7174-5.116-1.9594-30.606-0.16906-31.393 2.2049-0.89338 2.6948 27.365 3.1538 31.55 0.51248zm47.653-0.79804c2.3651-2.3604-1.9277-3.3637-12.879-3.0099-7.162 0.2314-11.585-0.33978-11.585-1.496 0-1.0287 1.2532-1.8703 2.785-1.8703 4.9775 0 20.355-7.478 20.355-9.8986 0-1.325-4.4769-3.7053-10.235-5.4418-14.778-4.4568-15.208-5.9772-1.691-5.9772 9.5434 0 11.926-0.54563 11.926-2.7314 0-4.144-32.636-3.0261-33.435 1.1452-0.54653 2.8532 10.325 8.6303 21.504 11.426 6.3312 1.5837 5.5354 2.278-9.0081 7.8589-12.009 4.6082-16.249 9.4945-9.866 11.37 4.0292 1.1837 30.711 0.0418 32.13-1.375zm-47.067-13.702c5.8002-7.1489 1.31-16.705-8.7329-18.585-6.6355-1.2424-13.44 2.0242-16.638 7.987-1.9564 3.6484 1.0898 11.676 5.5826 14.711 4.0706 2.7502 16.278 0.21281 19.788-4.1129zm-19.671-0.95663c-2.8324-1.1407-2.8893-8.1087-0.089-10.903 1.1748-1.1725 5.1644-2.1318 8.8659-2.1318 5.6925 0 6.9019 0.68399 7.8458 4.4372 1.8228 7.2485-0.19962 9.7899-7.667 9.6343-3.7019-0.0771-7.7319-0.54346-8.9557-1.0363zm14.464-23.917c4.8108-2.1876 7.7195-9.88 4.8274-12.766-1.7458-1.7424-2.2584-0.95441-4.7612 7.3187-0.47178 1.5594-3.196 2.1436-8.2841 1.7765-7.0523-0.5089-7.6189-0.93472-8.1228-6.1048-0.49421-5.071-0.0266-5.6344 5.3399-6.4333 3.2348-0.48154 7.582-0.23732 9.6604 0.54272 2.1935 0.82321 4.5403 0.6583 5.5938-0.39308 1.2332-1.2308 3.074-1.1388 5.7433 0.28698 3.9497 2.1097 4.1519 5.237 0.84895 13.129-1.0371 2.4782-0.74897 3.1346 1.1061 2.5195 4.4556-1.4772 6.2742-9.9779 3.2771-15.318-2.5352-4.5172-3.4668-4.7908-17.961-5.2744-16.789-0.56012-17.429-0.10667-17.492 12.4-0.0432 8.497 10.391 12.788 20.225 8.3161zm178.3 143.7c-0.39415-1.2382-1.1764-40.724-1.7383-87.746-0.85208-71.308-0.61531-85.832 1.4269-87.523 1.7231-1.4272 15.279-1.887 45.757-1.5518l43.308 0.47621 0.17496 8.8824c0.0962 4.8853 0.41144 44.856 0.70045 88.824l0.52549 79.941-44.719 0.47472c-34.87 0.37016-44.877-0.0211-45.436-1.7765zm36.404-26.316c5.3844-1.7552 12.593-4.5055 16.02-6.1118 20.781-9.742 20.472-11.542-3.5599-20.725-26.544-10.143-28.479-10.656-28.479-7.5602 0 1.4183 2.2027 3.4499 4.8949 4.5145s8.4993 3.4189 12.905 5.2316c4.4054 1.8127 11.214 4.588 15.13 6.1674l7.1198 2.8715-10.68 4.1024c-24.892 9.5617-28.503 11.339-29.105 14.332-0.48578 2.4133 0.11072 2.8016 2.6699 1.7382 1.8125-0.75316 7.7009-2.8054 13.085-4.5606zm30.458-49.215c2.1052-5.44 1.0522-17.078-2.1873-24.174-2.3943-5.2446-14.488-11.8-21.77-11.8-7.1882 0-16.08 4.2604-20.442 9.7949-3.0106 3.8199-3.8588 7.3032-3.8588 15.848 0 6.1497 0.93659 11.887 2.136 13.084 1.4204 1.4177 9.1865 2.1318 23.184 2.1318 21.048 0 21.048 0 22.938-4.8853zm-41.508-2.8436c-4.2207-4.2125-2.3149-16.888 3.3121-22.027 5.8864-5.3764 21.185-5.6397 27.76-0.47782 4.6725 3.6682 8.4626 18.509 5.4834 21.471-0.81193 0.80722-8.7253 2.0125-17.585 2.6785-13.527 1.0167-16.568 0.75304-18.97-1.6448zm11.94-6.4829c1.41-2.2769-6.2597-2.2769-9.7898 0-2.0316 1.3103-1.312 1.7286 3.0099 1.7493 3.1239 0.015 6.1749-0.77221 6.7799-1.7493zm21.111-36.659 8.2582-1.1297-7e-3 -10.861c-8e-3 -13.232-3.8915-20.478-13.385-24.974-10.392-4.9217-21.457-2.9909-28.821 5.029-5.4179 5.9004-5.846 7.2575-5.846 18.532 0 6.6909 0.53398 12.698 1.1866 13.35 1.5086 1.5057 27.736 1.5428 38.614 0.0546zm-34.948-7.0543c-0.59413-0.59297-0.62749-5.1896-0.0741-10.215 1.3336-12.11 5.2209-15.262 18.887-15.315 13.969-0.0535 19.054 4.6548 19.054 17.644v8.9631h-18.393c-10.116 0-18.879-0.48515-19.473-1.0781zm33.435-16.656c-1.0366-1.674-29.192-0.81946-30.954 0.93951-0.44419 0.44331 6.582 0.80603 15.614 0.80603 10.3 0 16.018-0.65064 15.34-1.7455zm-501.89 58.681c-2.1606-2.3827-2.7446-7.5755-2.7232-24.211 0.015-11.648 0.61573-22.057 1.335-23.131 0.71924-1.0744 5.9134-2.4156 11.542-2.9805l10.235-1.027 0.35599 20.301c0.1958 11.166 0.39604 23.299 0.44499 26.963 0.089 6.6618 0.089 6.6618-9.1752 6.8905-6.6909 0.16519-10.028-0.61385-12.015-2.8046zm11.489-33.737c0-2.096-3.4716-4.3381-4.7466-3.0656-1.275 1.2725 0.97155 4.7373 3.0716 4.7373 0.92121 0 1.6749-0.75224 1.6749-1.6716zm530.22 28.049c-1.0209-6.209 0.91523-27.696 2.214-24.571 0.61598 1.4822 0.87897 5.7262 0.58443 9.431-0.50583 6.3626-0.27181 6.7057 4.2199 6.1874 4.5665-0.52689 4.7763-1.0229 5.2805-12.486 0.51858-11.789 0.46347-11.951-4.4499-13.028-8.9808-1.9686-9.4249-2.3828-9.4249-8.7903v-6.3316l40.049 1.0046 0.49876 23.84c0.27432 13.112-0.12617 24.423-0.88998 25.136-0.7638 0.71304-9.4904 1.8549-19.392 2.5375-17.934 1.2362-18.006 1.2249-18.69-2.9304zm32.714-16.206c1.5118-14.619 0.11098-19.054-6.0183-19.054-6.085 0-6.2732 0.63789-1.5725 5.3294 4.5175 4.5086 4.5396 10.713 0.0583 16.399-3.8847 4.9289-3.1832 6.6951 2.6593 6.6951 3.403 0 4.0286-1.2028 4.8732-9.3698zm-197.6-21.009c-1.2237-1.2698-2.225-6.0749-2.225-10.678 0-7.1646 0.78822-9.0311 5.4764-12.968 9.5161-7.9916 28.076-4.8737 31.979 5.3722 2.0902 5.4868 2.2343 16.139 0.23503 17.372-0.80765 0.49818-8.6172 1.4244-17.355 2.0583-11.943 0.86646-16.438 0.57946-18.111-1.1562zm145.43 192.04-0.18482-33.753h-5.4836c-5.2284 0-5.3445 0.15339-2.4949 3.296 1.8106 1.9968 3.4099 7.7969 4.0571 14.714 1.0337 11.048 0.91701 11.487-3.6028 13.542-5.4231 2.4661-6.1825 5.7533-1.3292 5.7533 4.9435 0 6.4542 3.3283 6.4508 14.212l-3e-3 9.7706-9.7898 0.30645c-5.3844 0.16855-15.251 1.0314-21.925 1.9175-11.804 1.5671-19.376 1.4475-27.36-0.43199-3.0216-0.71129-4.1596-2.6657-5.0665-8.7015-0.70799-4.712-0.36627-9.2822 0.86583-11.58 1.2845-2.3954 1.6096-7.5518 0.88131-13.977-1.0122-8.9295-0.69436-10.596 2.586-13.559 4.3432-3.9228 4.3111-4.0104 4.492 12.272 0.1863 16.77 3.042 22.918 12.844 27.654 12.417 5.9992 22.343 2.4901 28.901-10.217 8.475-16.423-10.384-36.375-26.703-28.25-4.5481 2.2644-6.0559 2.3959-7.1533 0.62377-1.8153-2.9314 2.5734-4.6266 12.391-4.7862 8.6101-0.13995 13.196 1.757 20.353 8.4187 3.6461 3.394 4.8949 3.8537 4.8949 1.8016 0-4.2656-8.7407-11.99-19.967-17.646-8.5467-4.3059-12.352-5.1341-23.591-5.1341h-13.4v28.34c0 28.912 1.3849 36.512 6.9229 37.989 1.5768 0.42061 16.307 0.85748 32.734 0.97082l29.867 0.20607zm-411.31 25.691c7.4798-4.9402 10.959-10.821 10.781-18.225-0.0932-3.8767-0.82492-3.005-3.7983 4.5248-2.0256 5.1296-4.3353 9.3265-5.1327 9.3265-0.79743 0-3.6106 1.9985-6.2514 4.4412-6.1624 5.6999-4.2874 5.671 4.4015-0.0678zm206.84-8.2996c1.8766-3.625 3.3697-8.0218 3.3182-9.7706-0.0516-1.7488-2.0414 0.74066-4.422 5.5321s-5.7425 10.301-7.4711 12.243c-3.0724 3.452-3.0498 3.4757 1.0101 1.0589 2.2841-1.3597 5.6883-5.4382 7.5648-9.0632zm58.591 10.351c0-0.37457-1.6031-1.0994-3.5624-1.6108s-3.1135-0.2049-2.5649 0.68104c0.95806 1.5472 6.1273 2.3315 6.1273 0.92976zm37.855-4.2042c7.7436-8.5732 8.9906-30.311 2.3215-40.469-6.1512-9.3694-24.157-19.084-24.157-13.033 0 1.1067-1.7245 3.505-3.8323 5.3294-3.8323 3.3172-3.8323 3.3172 0.7444 3.3172 2.5172 0 5.9751 0.53556 7.6842 1.1901 2.1187 0.81141 2.698 0.52876 1.8205-0.88824-0.82348-1.3298 0.033-2.0784 2.378-2.0784 2.0157 0 3.5701 0.59956 3.4542 1.3324-0.60459 3.8216 0.59596 5.5818 4.1563 6.0941 2.7039 0.38904 4.4653 2.3845 5.5974 6.3412 0.90852 3.1754 2.4279 5.7735 3.3764 5.7735 2.0372 0 0.18305 14.413-2.6535 20.627-1.0484 2.2965-3.3866 4.6445-5.196 5.2176s-3.2898 1.7876-3.2898 2.6988c0 2.7453 4.599 1.8662 7.5961-1.4521zm-317.46-1.7792c6.7802-3.4644 12.611-12.908 12.611-20.425 0-7.08-9.842-17.171-18.01-18.466-8.0336-1.2737-17.908 3.0937-21.301 9.4216-5.398 10.066-1.3736 23.204 9.0516 29.549 5.9886 3.6447 10.4 3.625 17.649-0.0786zm98.611 1.056c5.1495-2.7226 11.886-10.595 11.923-13.933 0.024-2.1725 0.31206-2.2195 1.5596-0.25446 1.1771 1.854 1.8396 1.9107 2.8707 0.2455 0.73728-1.1906 0.45711-2.7096-0.62259-3.3756-1.0797-0.66599-2.2062-4.9293-2.5032-9.474-0.29705-4.5447-1.2459-8.9068-2.1085-9.6934-0.89242-0.81386-1.0136 0.0997-0.28104 2.1197 1.0445 2.8802 0.31089 2.6163-3.8884-1.399-9.7292-9.3029-21.883-8.0177-32.759 3.464-4.7429 5.0071-4.76 5.1197-2.3443 15.436 1.3384 5.7154 2.6874 10.62 2.9978 10.898 0.31037 0.27845 3.3678 2.1944 6.7942 4.2576 7.0026 4.2166 12.628 4.7402 18.362 1.709zm105.05-3.0299c4.3334-3.7683 8.3095-13.562 8.3012-20.446-0.0147-12.302-13.446-24.353-24.154-21.671-6.6233 1.6591-17.896 13.502-19.413 20.395-1.7166 7.8001 4.555 20.235 12.046 23.885 6.7019 3.2653 18.21 2.1933 23.22-2.1628zm96.591 1.3876c4.1201-3.4127 9.6148-15.062 9.6148-20.384 0-9.5877-10.775-20.33-20.391-20.33-5.8689 0-18.522 7.0869-19.802 11.091-3.7192 11.632 1.1013 25.696 10.298 30.043 6.2172 2.9386 16.483 2.7262 20.281-0.4197zm-35.87-4.7404c-0.75141-1.7099-1.5581-5.7557-1.7927-8.9907-0.81862-11.29-2.7076-18.22-4.6416-17.027-3.4939 2.1551 2.2359 29.127 6.1876 29.127 0.88705 0 0.99803-1.399 0.24663-3.1088zm-139.63-7.9509c0-6.7104-0.88832-6.0327-2.3875 1.8216-0.69909 3.6626-0.46111 5.4561 0.63431 4.7804 0.96423-0.59476 1.7532-3.5657 1.7532-6.602zm35.861-1.6249c-1.2194-4.229-1.7677-4.8458-1.8814-2.1166-0.18008 4.3207 1.6471 10.036 2.8308 8.855 0.42436-0.42353-3e-3 -3.4558-0.94934-6.7384zm-99.419-9.0449c0.44827-4.6233 0.11408-7.9736-0.74264-7.4452-0.85671 0.52844-1.4944 5.1105-1.4171 10.182 0.16039 10.525 0.97379 9.4945 2.1598-2.7373zm-36.666-4.4396c-0.4513-1.7284-0.85022-0.7444-0.8865 2.1868-0.0363 2.9312 0.33297 4.3454 0.82054 3.1426 0.48758-1.2027 0.51726-3.601 0.066-5.3294zm139.36-11.032c0.0149-0.43101-1.149 0.76811-2.5863 2.6647-1.4373 1.8966-2.5852 5.8466-2.5509 8.7778 0.0554 4.7277 0.34742 4.4268 2.5863-2.6647 1.3881-4.3968 2.536-8.3468 2.5509-8.7778zm-42.994 3.0899c-8.0671-14.584-23.788-20.327-40.489-14.791-5.6354 1.8681-10.337 4.86-12.582 8.0076-5.0787 7.1184-4.4257 9.1435 0.81083 2.5144 5.7447-7.2725 21.854-11.181 32.132-7.7956 8.46 2.7866 19.68 12.834 21.358 19.127 0.71047 2.6636 1.6577 3.8513 2.105 2.6393 0.44727-1.212-1.0532-5.5779-3.3344-9.7018zm100.2 2.7123c-2.0983-3.6013-2.605-2.4486-0.88737 2.0187 0.61043 1.5876 1.4848 2.5124 1.9431 2.055 0.45828-0.45738-0.0168-2.2905-1.0558-4.0737zm-202.4-7.8614c-4.3742-4.8273-15.475-10.481-20.58-10.481-3.8738 0-3.8864 0.0639-0.5159 2.6082 1.9003 1.4345 5.6075 2.6336 8.2382 2.6647 2.8755 0.034 6.7798 2.1009 9.7898 5.1827 5.6547 5.7896 8.3108 5.8113 3.0676 0.025zm196.65-2.7252c-6.1577-7.4262-26.83-12.178-33.628-7.7308-1.9254 1.2597-1.155 1.4575 2.7628 0.70925 6.9774-1.3325 24.338 3.6841 28.453 8.2217 3.7915 4.1814 5.974 3.0955 2.4121-1.2002zm-42.528-2.4261c1.958-1.9541 2.8831-3.5529 2.0558-3.5529s-2.9538 1.5988-4.7258 3.5529-2.697 3.5529-2.0558 3.5529 2.7678-1.5988 4.7258-3.5529zm143.98-62.577c8.2082-7.7581 9.2697-23.701 2.2007-33.054-3.9594-5.2388-16.204-7.2931-19.543-3.2786-2.6106 3.1395-2.0742 18.274 0.62761 17.706 0.97898-0.20581 2.1805-3.0038 2.6699-6.2176 0.71957-4.7245 1.7943-5.9479 5.6128-6.389 10.233-1.182 14.244 16.151 6.0007 25.929-7.3972 8.7739-25.847 8.7229-32.031-0.0885-4.052-5.7737-3.5616-19.545 0.8375-23.518 4.1839-3.779 4.5806-6.2176 1.0112-6.2176-1.4018 0-4.2998 2.4543-6.4399 5.454-5.4906 7.6956-4.2919 22.958 2.3214 29.558 8.4741 8.4575 27.842 8.5192 36.731 0.11697zm5.0711-50.608c0.39428-1.1853-1.337-2.6695-3.8472-3.2983-2.5102-0.62879-4.1637-1.7897-3.6745-2.5798s-1.2771-4.0065-3.9254-7.1476c-5.3694-6.3687-5.894-5.3206 7.3096-14.607 8.1458-5.7291 4.2123-8.4065-12.35-8.4065-10.165 0-15.073-0.69456-15.694-2.2206-0.67526-1.6609-1.2749-1.7013-2.3791-0.16029-0.81194 1.1332-3.8148 2.3323-6.6731 2.6647-2.8582 0.33243-5.5256 1.6037-5.9274 2.825-0.55202 1.6779 3.656 2.2206 17.217 2.2206 9.8714 0 17.948 0.68623 17.948 1.525 0 0.83872-4.6056 4.543-10.235 8.2316-5.6291 3.6887-13.671 9.4773-17.87 12.864-6.2076 5.0055-7.2406 6.6321-5.5232 8.6974 2.7785 3.3413 44.495 2.7853 45.624-0.60806zm-35.711-3.5549c-1.1596-1.8726 9.9754-9.6709 14.309-10.021 2.2634-0.18308 3.0602 0.85768 2.773 3.6221-0.28739 2.766 0.73408 4.0983 3.5599 4.6434 2.1796 0.42041-0.17668 0.87325-5.2362 1.0063-5.0596 0.13306-10.385 0.69613-11.835 1.2513s-3.0565 0.3294-3.5712-0.50164zm-452.22-18.272c-1.1233-7.0108-1.0644-7.1059 4.3983-7.1059 3.8987 0 7.0645 1.6323 10.701 5.5173 2.8402 3.0345 5.164 6.2322 5.164 7.1059 0 0.87372 1.6397 1.5886 3.6438 1.5886 3.3449 0 3.1891-0.56472-1.9-6.885l-5.5438-6.885 4.57-4.9214c5.5146-5.9387 5.5371-6.2493 0.88087-12.157-3.1571-4.0058-5.0508-4.6807-13.132-4.6807-5.3892 0-10.23 0.95322-11.277 2.2206-1.0088 1.2213-1.9908 8.6159-2.1821 16.432-0.43155 17.632-0.56219 16.876 2.9179 16.876 2.3835 0 2.6955-1.2605 1.7589-7.1059zm3.6969-11.903c-2.3836-0.61651-3.075-2.2304-2.6699-6.2323 0.49561-4.8968 1.1819-5.4378 7.3601-5.8026 4.0066-0.23652 7.8563 0.63852 9.3448 2.1241 6.9551 6.9414-1.7497 13.088-14.035 9.9108zm44.1 17.323c1.8088-2.9209-1.1929-30.295-3.315-30.231-2.2155 0.0665-9.9789 6.1421-9.9789 7.8095 0 0.59479 2.0025 0.57984 4.4499-0.0332 4.434-1.1107 4.4499-1.0694 4.4499 11.513 0 11.454 1.6036 15.448 4.394 10.942zm648.53-7.8445c2.376-2.3714 3.7735-5.1941 3.1056-6.2728-1.9801-3.1976-5.3753-2.2451-7.2571 2.0359-1.186 2.6979-3.5752 4.1734-7.3506 4.5395-4.494 0.4358-6.3309-0.49111-9.3448-4.7154-4.4942-6.2991-4.868-15.633-0.80546-20.114 3.6455-4.0203 12.671-4.2208 18.133-0.4028 2.2391 1.5652 4.5917 2.3263 5.228 1.6913 2.2894-2.2849-2.7532-7.2341-8.9775-8.8113-9.5949-2.4311-17.014 1.3351-21.19 10.757-3.3437 7.5442-3.3413 7.7095 0.21566 14.668 1.9786 3.8708 5.4104 8.3388 7.6262 9.9289 5.3563 3.8437 15.004 2.2973 20.617-3.3046zm27.021-13.619c0-17.876-1.7211-20.51-9.6395-14.754-5.7654 4.1911-5.8356 6.6221-0.15025 5.198 4.4499-1.1147 4.4499-1.1147 4.4499 12.243 0 10.689 0.53338 13.357 2.6699 13.357 2.1762 0 2.6699-2.967 2.6699-16.044zm-242.07-5.2736c0-0.97706-2.0025-1.7765-4.4499-1.7765-2.4474 0-4.4499 0.79941-4.4499 1.7765s2.0024 1.7765 4.4499 1.7765c2.4474 0 4.4499-0.79941 4.4499-1.7765zm-297.7-62.054c0.24474-0.0672 0.44499-14.026 0.44499-31.02 0-27.784-0.31399-31.02-3.1149-32.103-1.7132-0.6626-28.616-0.63093-59.785 0.0704-49.547 1.1148-56.818 1.6331-57.849 4.1235-1.6456 3.9758-1.4816 53.627 0.19065 57.71 1.3142 3.2089 3.7631 3.3037 60.519 2.3428 32.532-0.55077 59.349-1.0564 59.594-1.1236zm-115.14-7.0146c-2.7984-5.2186-2.509-48.101 0.33052-48.974 1.2237-0.37613 26.398-1.159 55.943-1.7396 53.718-1.0557 53.718-1.0557 55.025 2.9602 2.1514 6.608 1.38 45.819-0.94721 48.145-1.4456 1.4447-17.944 2.221-55.259 2.6004-51.563 0.52418-53.256 0.4322-55.092-2.992zm31.48-11.909c-1.6962-1.6929-5.0969 1.0492-3.8328 3.0905 0.75135 1.2133 1.747 1.1827 3.0253-0.0931 1.048-1.0459 1.4113-2.3947 0.8075-2.9974zm52.064-0.69433c0-2.1003 2.1422-4.6129 5.3399-6.2633 2.9369-1.5158 5.3399-3.9345 5.3399-5.375 0-3.7381-3.5478-3.258-3.6191 0.48974-0.0915 4.8048-7.0606-4.2443-7.0606-9.168 0-4.3471-3.0742-8.1526-6.5858-8.1526-3.079 0-3.1504 20.019-0.089 24.949 1.8339 2.9533 1.7557 3.881-0.44499 5.2781-2.0674 1.3125-1.5653 1.7012 2.225 1.7223 3.6962 0.0206 4.8949-0.83167 4.8949-3.4801zm19.58 0.29391c0-1.7674-1.176-4.7652-2.6133-6.6618-2.4812-3.2741-2.6162-3.1715-2.6699 2.0291-0.0311 3.0126 0.47738 6.0104 1.13 6.6618 2.1832 2.1789 4.1532 1.2164 4.1532-2.0291zm-67.639-10.099c0-8.0911-2.8736-15.111-6.1858-15.111-3.0808 0-3.7133 6.2798-0.81269 8.069 1.0457 0.64502 1.4687 2.298 0.93991 3.6732-1.3285 3.4552 2.0868 11.816 4.2753 10.466 0.98081-0.60499 1.7833-3.7987 1.7833-7.0971zm11.976 4.9896c0.34596-1.0358-1.0057-2.31-3.0037-2.8315-2.2143-0.57792-3.6327-0.0882-3.6327 1.2542 0 4.5935 5.215 5.8329 6.6364 1.5773zm9.3832-4.1122c0-3.9082-0.73734-7.1059-1.6385-7.1059-2.0683 0-4.3481 9.9537-2.8382 12.392 2.4232 3.9131 4.4767 1.4882 4.4767-5.2861zm8.7747 1.3324c0.17239 3.0598 3.685 2.8176 3.685-0.25406 0-1.361-1.2015-2.9348-2.67-3.4972-1.4685-0.56239-2.6699-2.2939-2.6699-3.8478 0-1.5539-0.60088-2.4547-1.3353-2.0017-0.73441 0.453-1.1966 3.498-1.027 6.7666 0.41411 7.982 0.58766 8.2881 2.3623 4.1665 0.84137-1.9541 1.586-2.5537 1.6549-1.3324zm-18.272-9.2071c-0.58876-1.5313-1.9823-2.7841-3.0967-2.7841-1.1164 0-1.5411 1.2618-0.94584 2.81 0.59423 1.5455 1.0804 3.7039 1.0804 4.7965 0 1.4491 0.54546 1.4421 2.0163-0.0259 1.109-1.1068 1.5346-3.2652 0.94584-4.7965zm8.6628-4.4714c-0.65517-1.058-2.0224-1.411-3.0382-0.78436-1.1959 0.73766-1.0138 1.6532 0.51644 2.5971 2.8564 1.7619 4.1566 0.82728 2.5218-1.8127zm48.894-0.0892c0-3.7467-2.5896-4.7806-4.4499-1.7765-1.298 2.096 0.38565 5.3294 2.775 5.3294 0.92121 0 1.6749-1.5988 1.6749-3.5529zm-92.966-0.33309c-1.1002-3.294-4.932-3.8403-4.932-0.70318 0 1.547 1.2682 2.8127 2.8183 2.8127 1.55 0 2.5012-0.9493 2.1137-2.1096zm51.137-5.8914c0.97898-0.33051-3.2734-0.66404-9.4498-0.74117-6.1764-0.0771-10.795 0.56239-10.263 1.4212 0.85708 1.3841 15.049 0.89451 19.713-0.68zm-130.48 27.098c0.52382-7.2256 0.77678-7.5265 5.8872-7.004 3.5708 0.36515 7.4038 2.8755 11.57 7.5775 3.4264 3.8673 6.8306 7.0191 7.5648 7.004 2.8354-0.0584 1.1335-4.9265-3.1149-8.9098-2.4474-2.2948-4.4499-4.796-4.4499-5.5583s2.0024-3.3846 4.4499-5.8272c5.3165-5.3061 5.4407-6.5408 1.1857-11.785-4.2739-5.2677-21.376-7.2044-25.012-2.8324-2.3244 2.7953-4.5748 30.361-2.7227 33.352 2.1968 3.5475 4.1305 1.0412 4.6422-6.0164zm0.92605-13.094c-0.69778-0.69642-1.2687-3.5312-1.2687-6.2996 0-4.8388 0.33548-5.0333 8.6819-5.0333 9.9066 0 14.665 3.5521 11.502 8.5871-1.9234 3.0624-16.481 5.1755-18.915 2.7457zm52.13 18.867c0-0.97706-3.6044-1.7765-8.0098-1.7765-4.4054 0-8.0098-0.36767-8.0098-0.81705s4.0049-4.5558 8.8998-9.1254c10.2-9.5224 11.267-14.588 4.2352-20.109-5.5293-4.3408-12.352-3.4704-17.298 2.2066-4.4152 5.0683-0.71654 6.0442 5.226 1.3789 3.6398-2.8574 5.4154-3.2512 8.1275-1.8026 6.9065 3.689 6.0126 7.0974-4.452 16.975-13.269 12.524-13.175 14.847 0.60126 14.847 5.9332 0 10.68-0.78954 10.68-1.7765zm226.05-12.705c0-0.96063 1.3206-0.9264 3.2108 0.0832 4.2764 2.2842 6.5709 0.37908 6.8648-5.6998 0.18599-3.8475-0.81171-5.3977-4.334-6.7343-6.5282-2.4772-8.8572-0.98549-7.9623 5.0998 0.62399 4.2432 0.0262 5.4381-3.1331 6.2626-2.1473 0.56043-3.4223 1.7971-2.8334 2.7482 1.2778 2.0635 8.1871 0.5783 8.1871-1.7598zm180.83-6.2891c0.34065-6.7909-0.0543-7.5408-4.483-8.5116-2.6711-0.58553-6.9982-0.25195-9.6157 0.74127-3.7264 1.414-4.7591 2.9843-4.7591 7.2365 0 6.1543 4.4794 8.9792 13.247 8.3542 4.8369-0.34479 5.2658-0.94261 5.6108-7.8203zm22.081 1.3342c0-7.957-1.5504-9.5583-7.7506-8.0052-3.3554 0.84049-4.5187 2.4957-5.0707 7.2145-0.87159 7.4512-0.57057 7.7917 6.888 7.7917 5.7206 0 5.9332-0.25084 5.9332-7.001zm-257.85-3.1248c-1.9326-0.76706-1.9653-1.2474-0.16082-2.3605 1.258-0.77594 4.8379-0.17318 8.0494 1.3553 6.3514 3.0228 12.37 1.8804 10.854-2.0604-1.0176-2.6466 2.2487-4.5732 7.7533-4.5732 1.8201 0 3.8018-0.79541 4.4039-1.7676 0.6676-1.0781-1.7516-1.6563-6.202-1.4822-4.0131 0.15694-7.7248 0.97688-8.2482 1.8221-0.5234 0.8452-3.5139 1.057-6.6455 0.47065-4.2125-0.78871-6.9123-0.10959-10.377 2.6102-2.5756 2.022-5.5577 3.6763-6.627 3.6763s-1.9442 0.79941-1.9442 1.7765 2.6032 1.7134 5.7849 1.6362c3.1817-0.0771 4.693-0.57361 3.3585-1.1033zm33.576-0.53295c0-0.97706-2.0497-1.7765-4.555-1.7765-2.5834 0-4.0788 0.76893-3.4549 1.7765 0.60504 0.97706 2.6548 1.7765 4.555 1.7765s3.4549-0.79941 3.4549-1.7765zm-52.163-4.4973c-2.7468-2.4118-5.7951-4.385-6.7741-4.385s0.46741 1.9733 3.2142 4.385 5.7951 4.385 6.7741 4.385-0.46741-1.9733-3.2142-4.385zm285.34 2.0722c0-4.0072-7.1341-11.787-10.809-11.787-4.7533 0-4.2888 2.4942 0.98967 5.3137 2.4312 1.2986 4.8882 3.8319 5.4598 5.6296 1.2076 3.7975 4.3594 4.4072 4.3594 0.84338zm-212.26-37.101c-0.40791-1.2213-2.2101-2.2206-4.0049-2.2206s-3.597 0.99926-4.0049 2.2206c-0.46971 1.4064 0.99875 2.2206 4.0049 2.2206s4.4746-0.81421 4.0049-2.2206zm10.05-5.2937c1.6232-8.0999-3.7582-12.211-12.435-9.5004-7.4303 2.3211-7.6973 3.9402-0.89571 5.4311 3.5029 0.76786 5.5253 2.5342 6.2638 5.4706 1.5554 6.1849 5.7124 5.3607 7.0674-1.4012zm171.95-2.0491c0-8.7719-1.7256-9.922-12.905-8.6012-6.2592 0.73953-6.6748 1.1673-6.6748 6.8692 0 6.7848 3.5522 9.207 13.795 9.4064 5.6639 0.11025 5.7849-0.0503 5.7849-7.6743zm20.182 5.0162c-0.70247-1.827 0.16574-3.092 2.5492-3.714 7.6022-1.9841 5.0718-16.609-2.8736-16.609-2.0718 0-1.7908 0.87304 1.1658 3.6222 2.1426 1.9922 3.8956 4.3432 3.8956 5.2246 0 2.516-3.1927 3.8423-4.432 1.8411-0.61491-0.993-3.8742-1.8054-7.2428-1.8054-5.959 0-6.1248 0.1924-6.1248 7.1059 0 7.0965 9e-3 7.1059 7.064 7.1059 5.6679 0 6.8534-0.54758 5.9987-2.7707zm-223.91-6.2299c0.6453-1.0421 0.89282-2.1706 0.55004-2.5078-1.2251-1.2053-10.413 1.2945-10.413 2.8331 0 2.2309 8.4527 1.9521 9.863-0.32528zm-15.203-5.4089c0-3.1497-1.0171-3.4816-9.2049-3.004-9.8832 0.57652-14.63 4.8801-5.6281 5.103 2.7738 0.0687 6.6452 0.76805 8.6032 1.5542 4.5193 1.8145 6.2299 0.81141 6.2299-3.6532zm8.8998-3.3553c2.159-1.3925 1.9036-1.7273-1.335-1.7493-2.2027-0.015-4.0049 0.77221-4.0049 1.7493 0 2.2258 1.889 2.2258 5.3399 0zm445.2-203.93c41.468-21.621 26.809-83.703-19.789-83.806-24.628-0.05449-44.421 19.709-44.421 44.355 0 33.007 35.148 54.603 64.21 39.451zm-647.13-6.3615c15.286-7.1039 25.71-22.681 25.71-38.418 0-21.2-17.673-40.218-39.184-42.164-26.354-2.385-47.956 16.608-47.956 42.164 0 30.997 32.995 51.633 61.429 38.418z"/><g fill="none"><g stroke="#000" stroke-linecap="round" stroke-linejoin="round"><line x1="205.58" x2="205.58" y1="761.73" y2="676.67" stroke-width="9.2279"/>
    <line x1="604.7" x2="604.7" y1="764.47" y2="677.81" stroke-width="9.3137"/>
    <line x1="694.63" x2="694.63" y1="759.92" y2="676.45" stroke-width="9.1413"/>
    <line x1="693.5" x2="209.03" y1="762.01" y2="762.01" stroke-width="12.602"/>
    <line x1="689.79" x2="204.3" y1="675.6" y2="675.6" stroke-width="12.615"/>
    
    
    
    
    
    
    </g><rect transform="rotate(-90)" x="-748.51" y="620.23" width="58" height="58" stroke="#999" stroke-width="20"/></g><g fill="#fff" stroke="#999" stroke-width="20"><circle id="connector4pin" transform="rotate(-90)" cx="-721.63" cy="256.15" r="29"/><circle id="connector3pin" transform="rotate(-90)" cx="-722.31" cy="355.06" r="29"/><circle id="connector2pin" transform="rotate(-90)" cx="-721.32" cy="454.58" r="29"/>
    
    
    <circle id="connector1pin" transform="rotate(-90)" cx="-721.79" cy="555.47" r="29"/><circle id="connector0pin" transform="rotate(-90)" cx="-721.28" cy="649.14" r="29"/>
    
    
    
    
    
  </g></g>
</svg>
